<?xml version="1.0" encoding="utf-8"?>
<!-- Generator: Adobe Illustrator 22.0.1, SVG Export Plug-In . SVG Version: 6.00 Build 0)  -->
<svg version="1.1" xmlns="http://www.w3.org/2000/svg" xmlns:xlink="http://www.w3.org/1999/xlink" x="0px" y="0px"
	 viewBox="0 0 500 500" style="enable-background:new 0 0 500 500;" xml:space="preserve">
<style type="text/css">
	.st0{fill:#232E35;}
	.st1{fill:#FFFFFF;}
</style>
<g id="Слой_1">
	<g>
		<circle class="st0" cx="250" cy="250" r="247"/>
	</g>
</g>
<g id="Слой_2">
	<g>
		<circle class="st1" cx="250" cy="250" r="148.2"/>
	</g>
	<path class="st0" d="M390.3,240.1c-5.9,8.5-15.9,9.5-70.3,11.9c-48.6,2.2-57.4,2.1-64,2c-24.5-0.4-36.7-0.6-42-1
		c-24.8-1.8-40.3-5-52,5c-1.6,1.4-5.1,4.4-7,9c-9.2,22.9,27.3,73.3,73.3,83.8c25,5.7,55.8,0.3,79-13.8c21.3-13,34.7-32.4,49.4-27.7
		c5.2,1.7,10.2,6.3,11.9,11.9c5.7,19-26.3,50.9-61.3,65.2c-34.8,14.3-68.8,9.8-69.2,15.8c-0.2,2.9,7.8,5.8,13.8,7.9
		c0,0,14.5,5.9,29.6,4c87.3-11.2,128.4-83,128.4-83c7.5-13.1,33.7-59.1,15.8-96.8c-7.7-16.2-23.4-30.5-29.6-27.7
		C389.9,209.5,399.3,227.2,390.3,240.1z"/>
</g>
<g id="Слой_3">
	<path class="st0" d="M169,172.9c1.7-2.9,7.6-12.2,21.7-21.7c7.8-5.3,33-22.3,67.2-17.8c22.6,3,37.7,14,45.4,19.8
		c6.7,5,18.1,13.8,25.7,29.6c5,10.3,8.2,17.1,6,23.2c-1.6,4.3-8.4,15.1-92,13c-70.9-1.8-79.5-10-81.9-16.4
		C157.3,192.6,165.3,179,169,172.9z"/>
	<path class="st0" d="M575,223"/>
</g>
<g id="Слой_4">
	<circle class="st1" cx="402.2" cy="380.4" r="11.9"/>
</g>
</svg>
